<?xml version="1.0" standalone="no"?>
<!DOCTYPE svg PUBLIC "-//W3C//DTD SVG 20010904//EN"
 "http://www.w3.org/TR/2001/REC-SVG-20010904/DTD/svg10.dtd">
<svg version="1.0" xmlns="http://www.w3.org/2000/svg"
 width="938.000000pt" height="938.000000pt" viewBox="0 0 938.000000 938.000000"
 preserveAspectRatio="xMidYMid meet">
<metadata>
Created by potrace 1.14, written by Peter Selinger 2001-2017
</metadata>
<g transform="translate(0.000000,938.000000) scale(0.100000,-0.100000)"
fill="#000000" stroke="none">
<path d="M3325 7704 c-22 -19 -75 -68 -119 -107 -43 -40 -88 -81 -100 -92 -12
-11 -63 -57 -112 -101 -49 -45 -111 -101 -138 -125 -27 -24 -61 -55 -76 -69
-15 -14 -65 -59 -110 -100 -46 -41 -97 -88 -115 -105 -18 -16 -63 -57 -100
-90 -37 -33 -82 -73 -99 -90 -18 -16 -66 -59 -106 -95 -40 -36 -92 -83 -116
-105 -23 -22 -70 -65 -104 -95 -34 -30 -77 -68 -94 -85 -18 -16 -68 -61 -111
-100 -43 -38 -97 -88 -120 -110 -24 -22 -73 -67 -111 -100 -37 -33 -80 -71
-94 -85 -14 -14 -64 -59 -110 -100 -46 -41 -96 -86 -110 -100 -15 -14 -59 -54
-99 -90 -41 -36 -88 -78 -106 -95 -17 -16 -72 -66 -121 -110 -48 -44 -107 -97
-129 -117 -22 -20 -54 -49 -71 -65 -17 -15 -67 -60 -110 -100 -44 -39 -90 -81
-104 -93 -14 -12 -61 -54 -105 -95 -44 -40 -92 -83 -106 -96 -91 -83 -195
-178 -219 -199 -15 -14 -46 -41 -68 -61 l-42 -37 97 -88 c129 -119 139 -128
229 -209 107 -97 253 -229 314 -285 59 -54 194 -176 214 -193 12 -10 59 -53
105 -95 126 -116 144 -132 215 -195 36 -32 85 -77 110 -100 24 -23 60 -55 79
-72 31 -27 132 -119 275 -250 30 -27 64 -58 76 -68 21 -18 155 -140 206 -187
40 -36 190 -172 210 -190 10 -8 59 -53 110 -100 51 -47 102 -93 114 -103 33
-29 175 -158 216 -197 20 -19 53 -48 72 -65 33 -28 169 -151 227 -205 47 -44
195 -178 221 -200 25 -21 186 -169 244 -223 l30 -28 29 33 c16 18 48 53 71 78
22 25 73 81 111 125 39 43 81 90 94 104 20 23 117 133 146 166 6 6 26 28 45
49 l35 37 -51 47 c-28 26 -88 81 -134 122 -46 41 -97 88 -114 104 -17 15 -64
58 -105 95 -41 36 -90 81 -109 99 -20 18 -53 48 -75 67 -21 19 -80 72 -130
117 -50 46 -111 101 -136 123 -24 22 -61 56 -81 75 -21 19 -66 60 -101 92 -35
31 -76 67 -90 80 -56 51 -202 184 -223 203 -46 40 -200 180 -216 195 -8 8 -59
54 -113 103 -53 48 -105 95 -115 105 -10 9 -56 51 -102 92 -46 41 -103 93
-126 115 -23 22 -64 59 -91 81 -26 23 -62 55 -78 70 -17 16 -71 65 -119 109
-49 44 -104 94 -122 110 -18 17 -67 62 -110 100 -126 113 -179 165 -169 165 6
0 30 19 55 41 25 23 85 78 134 123 49 44 94 86 100 91 56 50 224 202 237 215
8 8 45 41 82 74 37 32 79 70 95 85 15 14 65 60 111 101 46 41 95 86 110 100
15 14 65 59 112 101 46 42 110 101 143 130 32 30 67 61 76 69 10 9 55 49 100
90 46 41 95 86 109 99 52 46 195 177 227 206 18 17 67 62 110 100 43 39 90 81
105 95 15 14 58 53 95 86 38 34 81 72 95 85 14 13 63 58 109 99 45 41 97 89
115 105 18 17 65 59 105 95 40 36 87 79 105 95 17 17 64 59 103 94 40 35 72
66 72 70 0 6 -11 19 -144 165 -39 43 -79 88 -89 100 -10 12 -35 39 -55 62 -20
22 -68 75 -107 118 -38 43 -84 94 -100 112 l-31 33 -39 -35z"/>
<path d="M5919 7634 c-52 -59 -104 -118 -117 -133 -36 -41 -144 -161 -172
-191 -14 -15 -40 -45 -59 -66 -19 -22 -46 -52 -60 -67 l-26 -28 46 -42 c26
-23 84 -76 130 -118 46 -42 98 -89 115 -105 35 -33 176 -160 203 -183 20 -18
179 -163 221 -201 15 -14 57 -52 94 -84 37 -33 84 -76 105 -95 21 -20 75 -70
121 -111 47 -41 105 -94 130 -117 62 -58 62 -58 180 -164 58 -53 120 -108 139
-125 18 -16 55 -49 81 -74 27 -25 81 -74 121 -110 77 -69 91 -81 180 -163 31
-29 94 -86 139 -127 46 -41 95 -86 110 -100 15 -14 56 -50 90 -80 34 -30 78
-71 99 -90 21 -19 77 -71 126 -115 167 -150 189 -170 234 -212 l46 -43 -40
-36 c-22 -20 -83 -76 -135 -123 -52 -48 -124 -114 -160 -146 -36 -32 -72 -65
-81 -74 -9 -9 -49 -45 -89 -81 -41 -36 -83 -74 -95 -85 -11 -11 -65 -60 -120
-110 -55 -49 -107 -96 -116 -105 -9 -8 -49 -44 -89 -80 -39 -36 -89 -81 -110
-100 -21 -19 -69 -63 -107 -96 -37 -34 -87 -79 -110 -100 -23 -22 -67 -61 -98
-89 -31 -27 -80 -72 -110 -100 -47 -44 -169 -154 -215 -195 -31 -27 -172 -154
-199 -180 -32 -30 -193 -176 -220 -199 -30 -26 -168 -152 -221 -201 -27 -25
-74 -67 -105 -95 -31 -27 -78 -71 -106 -96 -27 -26 -78 -72 -114 -104 -36 -31
-65 -60 -65 -64 0 -3 17 -24 38 -47 20 -22 69 -75 107 -118 39 -43 79 -88 90
-101 11 -12 47 -52 80 -89 104 -118 159 -179 186 -208 l26 -27 40 37 c49 45
178 162 252 228 30 27 64 58 75 69 12 11 62 56 111 100 49 44 102 91 116 105
37 36 100 93 203 185 50 44 97 87 106 95 16 15 186 169 226 205 32 29 172 156
204 185 89 82 188 171 210 190 14 12 65 58 114 103 49 45 99 91 111 102 85 76
193 173 210 190 12 11 62 56 110 100 49 44 97 87 106 95 91 84 188 172 205
187 50 43 170 152 215 194 50 48 91 85 202 183 37 32 89 79 116 105 27 25 76
69 108 98 32 28 77 69 99 90 23 21 76 70 119 108 43 39 84 76 91 83 11 10 2
22 -49 69 -34 31 -69 63 -78 72 -9 9 -47 43 -84 76 -37 33 -77 69 -89 80 -12
11 -68 63 -126 115 -58 52 -110 99 -116 105 -6 5 -51 46 -100 90 -49 44 -104
95 -122 113 -19 17 -35 32 -37 32 -2 0 -24 19 -48 43 -25 23 -100 92 -167 152
-68 61 -135 121 -150 135 -23 21 -71 65 -226 205 -12 11 -57 52 -100 90 -42
39 -89 81 -103 94 -14 13 -62 55 -105 95 -43 39 -91 82 -105 96 -15 14 -69 63
-121 110 -113 101 -163 146 -200 180 -27 25 -163 148 -204 185 -85 76 -208
188 -255 231 -31 28 -68 62 -82 75 -15 13 -59 53 -99 89 -40 36 -92 83 -115
105 -24 22 -76 69 -116 105 -40 36 -85 76 -99 90 -14 14 -44 40 -66 59 -21 18
-64 57 -94 85 -106 98 -83 101 -191 -20z"/>
</g>
</svg>
