<?xml version="1.0" encoding="utf-8"?>
<!-- Generator: Adobe Illustrator 25.4.1, SVG Export Plug-In . SVG Version: 6.00 Build 0)  -->
<svg version="1.1" id="Layer_1" xmlns="http://www.w3.org/2000/svg" xmlns:xlink="http://www.w3.org/1999/xlink" x="0px" y="0px"
	 viewBox="0 0 3187.5 796.9" style="enable-background:new 0 0 3187.5 796.9;" xml:space="preserve">
<g transform="scale(9.375) translate(10, 10)">
	<g id="SvgjsG1483" transform="matrix(1.0869565217391304,0,0,1.0869565217391304,-4.3478260869565215,-21.847826501597527)">
		<g>
			<polygon points="37,79.9 4,50 37,20.1 42.2,25.9 15.6,50 42.2,74.1 			"/>
			<polygon points="63,79.9 57.8,74.1 84.4,50 57.8,25.9 63,20.1 96,50 			"/>
		</g>
	</g>
	<g id="SvgjsG1484" transform="matrix(3.84091212285691,0,0,3.84091212285691,116.09498207740886,-17.73685706564154)">
		<path d="M5.8,6.4c4.5,0,6.9,3.5,6.9,6.7c0,3.5-2.4,6.8-6.9,6.8H1.3C1.1,20,1,19.9,1,19.7v-13c0-0.2,0.1-0.3,0.3-0.3L5.8,6.4
			L5.8,6.4z M5.9,18.2c3.1,0,4.9-2.5,4.9-5c0-2.5-1.7-4.8-4.9-4.8h-3l0,9.9H5.9L5.9,18.2z M21.9,19.6c-0.2-1.7-0.2-3.2-0.2-4.8
			c0.1-2-1-3.3-3.1-3.3c-1.4,0-2.8,0.4-3.6,0.9c-0.2,0.1-0.3,0.2-0.2,0.4l0.4,1c0.1,0.2,0.2,0.2,0.4,0.1c1.1-0.5,2-0.7,2.8-0.7
			c0.9,0,1.5,0.4,1.4,1.3c-3.1,0.5-5.5,1.1-5.5,3.3c0,1.5,1.1,2.3,2.8,2.3c1.4,0,2.2-0.4,2.9-1c0.1,0.5,0.2,0.9,0.6,0.9h1
			C21.9,20,21.9,19.8,21.9,19.6L21.9,19.6z M17.6,18.6c-0.7,0-1.2-0.2-1.2-0.9c0-1,1.9-1.4,3.6-1.7c0,0.6,0,1.3,0,1.8
			C19.4,18.2,18.4,18.6,17.6,18.6L17.6,18.6z M29.8,12c0.2,0.1,0.2,0.2,0.1,0.4l-0.7,1c-0.1,0.1-0.2,0.2-0.4,0.1
			c-0.4-0.2-0.7-0.3-1.2-0.3s-1.4,0.2-1.9,1.3v5.2c0,0.2-0.1,0.3-0.3,0.3h-1.3c-0.2,0-0.3-0.1-0.3-0.3v-7.8c0-0.2,0.1-0.3,0.3-0.3
			h0.9c0.4,0,0.7,0.4,0.7,0.7v0.1c0.6-0.5,1.3-0.9,2.2-0.9C28.8,11.5,29.5,11.8,29.8,12L29.8,12z M35.8,11.5c2,0,3.9,1.6,3.9,4.2
			c0,2.5-1.5,4.4-3.9,4.4c-0.9,0-1.7-0.3-2.3-0.7c-0.1,0.4-0.5,0.6-0.9,0.6h-0.7c-0.2,0-0.3-0.1-0.3-0.3V7.9c0-0.5-0.1-0.8-0.1-1.1
			c0-0.2,0-0.4,0.2-0.4h1.2c0.4,0,0.6,0.3,0.6,0.6v5.1C34,11.8,34.7,11.5,35.8,11.5L35.8,11.5z M35.4,18.4c1.4,0,2.4-1,2.4-2.7
			c0-1.7-1.3-2.5-2.3-2.5c-0.8,0-1.5,0.3-2.1,0.7v3.9C34,18.1,34.6,18.4,35.4,18.4L35.4,18.4z M42.6,8.5c-0.6,0-1-0.4-1-1
			c0-0.6,0.5-1,1-1c0.6,0,1,0.5,1,1C43.7,8.1,43.2,8.5,42.6,8.5z M43.3,11.6H42c-0.2,0-0.3,0.1-0.3,0.3v7.4c0,0.4,0.2,0.7,0.6,0.7
			h0.9c0.2,0,0.3-0.1,0.3-0.3v-7.8C43.6,11.7,43.5,11.6,43.3,11.6L43.3,11.6z M53.1,19.6c-0.2-1.7-0.2-3.2-0.2-4.8
			c0.1-2-1-3.3-3.1-3.3c-1.4,0-2.8,0.4-3.6,0.9c-0.2,0.1-0.3,0.2-0.2,0.4l0.4,1c0.1,0.2,0.2,0.2,0.4,0.1c1.1-0.5,2-0.7,2.8-0.7
			c0.9,0,1.5,0.4,1.4,1.3c-3.1,0.5-5.5,1.1-5.5,3.3c0,1.5,1.1,2.3,2.8,2.3c1.4,0,2.2-0.4,2.9-1c0.1,0.5,0.2,0.9,0.6,0.9h1
			C53.1,20,53.1,19.8,53.1,19.6L53.1,19.6z M48.7,18.6c-0.7,0-1.2-0.2-1.2-0.9c0-1,1.9-1.4,3.6-1.7c0,0.6,0,1.3,0,1.8
			C50.5,18.2,49.6,18.6,48.7,18.6L48.7,18.6z"/>
	</g>
</g>
</svg>
